#!OML:ASF G:\JayActor3\Patient Classification 1\Patient 1\Session 6\male.ASF
:FULLY-SPECIFIED
:DEGREES
1416
root 5.09685 15.7039 -3.75133 44.435 -49.4956 16.5472
lowerback 53.7288 -0.691919 7.17276
upperback 18.032 1.55815 4.48572
thorax -0.633016 0.447154 1.03169
lowerneck -12.7449 -1.62495 4.21734
upperneck -6.10532 -2.90459 0.129974
head 0.14058 -1.6355 -0.77026
rclavicle 7.31528e-014 5.24792e-014
rhumerus 82.2512 -17.7092 -27.226
rradius 21.4569
rwrist 9.68165
rhand -30.2821 -21.1143
rfingers 7.12502
rthumb -3.58992 -51.0638
lclavicle 7.31528e-014 5.24792e-014
lhumerus 92.7576 2.31114 40.8653
lradius 26.7016
lwrist 56.3084
lhand -16.4537 6.87387
lfingers 7.12502
lthumb 9.76242 36.6276
rfemur -81.8996 -17.5056 0.433109
rtibia 51.8319
rfoot -22.8625 -12.4976
rtoes 0.654795
lfemur -81.6967 5.97191 -44.5212
ltibia 34.2829
lfoot 2.16531 -21.4522
ltoes 27.7839
1417
root 5.10415 15.7021 -3.75764 44.3856 -49.4669 16.5866
lowerback 53.7312 -0.708275 7.19694
upperback 18.0259 1.55348 4.48288
thorax -0.638007 0.447072 1.01975
lowerneck -12.7582 -1.63222 4.18811
upperneck -6.13977 -2.91143 0.138785
head 0.132078 -1.63934 -0.762559
rclavicle -1.38354e-013 -2.70347e-014
rhumerus 82.2466 -17.7442 -27.2656
rradius 21.4452
rwrist 9.72259
rhand -30.2944 -21.1096
rfingers 7.12502
rthumb -3.60173 -51.0589
lclavicle -1.38354e-013 -2.70347e-014
lhumerus 92.8309 2.29962 40.933
lradius 26.718
lwrist 56.3839
lhand -16.4203 6.91028
lfingers 7.12502
lthumb 9.79465 36.6625
rfemur -81.915 -17.5213 0.39048
rtibia 51.8764
rfoot -22.8668 -12.5204
rtoes 0.669608
lfemur -81.7119 5.97236 -44.6044
ltibia 34.2778
lfoot 2.28258 -21.4998
ltoes 27.8877
1418
root 5.11141 15.7004 -3.76394 44.3241 -49.4415 16.6338
lowerback 53.7367 -0.729378 7.22434
upperback 18.0205 1.54485 4.47532
thorax -0.642115 0.445859 1.00289
lowerneck -12.7695 -1.63635 4.15847
upperneck -6.16668 -2.91354 0.154201
head 0.125819 -1.64041 -0.752609
rclavicle 1.74931e-014 -3.97569e-014
rhumerus 82.2527 -17.7789 -27.3354
rradius 21.4299
rwrist 9.77619
rhand -30.304 -21.1008
rfingers 7.12502
rthumb -3.61099 -51.0499
lclavicle 1.74931e-014 -3.97569e-014
lhumerus 92.8946 2.28886 40.9761
lradius 26.7372
lwrist 56.4515
lhand -16.4037 6.94773
lfingers 7.12502
lthumb 9.81069 36.6992
rfemur -81.9249 -17.5382 0.339845
rtibia 51.9224
rfoot -22.8672 -12.5432
rtoes 0.67958
lfemur -81.7217 5.98521 -44.7151
ltibia 34.2693
lfoot 2.42321 -21.5657
ltoes 28.0137
1419
root 5.11878 15.6985 -3.77023 44.2497 -49.4194 16.6955
lowerback 53.7391 -0.758097 7.25573
upperback 18.0162 1.529 4.46069
thorax -0.64413 0.442502 0.979242
lowerneck -12.7834 -1.63635 4.13117
upperneck -6.1807 -2.9101 0.180778
head 0.124287 -1.63815 -0.73956
rclavicle 8.90555e-014 2.38542e-014
rhumerus 82.264 -17.815 -27.4229
rradius 21.4125
rwrist 9.83221
rhand -30.3108 -21.0931
rfingers 7.12502
rthumb -3.6176 -51.0422
lclavicle 8.90555e-014 2.38542e-014
lhumerus 92.9483 2.27926 40.9938
lradius 26.7619
lwrist 56.5183
lhand -16.3981 6.98294
lfingers 7.12502
lthumb 9.8161 36.7341
rfemur -81.9324 -17.5597 0.276247
rtibia 51.9705
rfoot -22.8703 -12.5616
rtoes 0.707851
lfemur -81.7275 6.00027 -44.848
ltibia 34.2579
lfoot 2.57938 -21.6408
ltoes 28.1473
1420
root 5.12626 15.6967 -3.77655 44.1599 -49.4037 16.7703
lowerback 53.743 -0.79039 7.2859
upperback 18.0127 1.5084 4.44081
thorax -0.64522 0.437536 0.952291
lowerneck -12.799 -1.63261 4.10363
upperneck -6.18521 -2.90123 0.220602
head 0.126312 -1.63264 -0.722266
rclavicle 5.24792e-014 5.08889e-014
rhumerus 82.273 -17.8528 -27.5091
rradius 21.3956
rwrist 9.87954
rhand -30.3185 -21.0858
rfingers 7.12502
rthumb -3.62501 -51.0348
lclavicle 5.24792e-014 5.08889e-014
lhumerus 92.9918 2.26852 40.9965
lradius 26.7909
lwrist 56.5888
lhand -16.4079 7.02068
lfingers 7.12502
lthumb 9.80664 36.7723
rfemur -81.9358 -17.5833 0.200017
rtibia 52.0197
rfoot -22.8693 -12.5814
rtoes 0.732742
lfemur -81.7263 6.01862 -44.9969
ltibia 34.2443
lfoot 2.75015 -21.7191
ltoes 28.2974
1421
root 5.13395 15.6948 -3.78291 44.0571 -49.3921 16.8558
lowerback 53.7505 -0.816646 7.31009
upperback 18.008 1.49275 4.42868
thorax -0.648785 0.433684 0.934573
lowerneck -12.8162 -1.63006 4.0707
upperneck -6.18292 -2.89324 0.264014
head 0.130845 -1.62725 -0.703098
rclavicle -6.20208e-014 3.97569e-014
rhumerus 82.2587 -17.8955 -27.5419
rradius 21.3865
rwrist 9.89353
rhand -30.3304 -21.0891
rfingers 7.12502
rthumb -3.63652 -51.0379
lclavicle -6.20208e-014 3.97569e-014
lhumerus 93.0305 2.2517 40.9976
lradius 26.8225
lwrist 56.6747
lhand -16.4311 7.05163
lfingers 7.12502
lthumb 9.78428 36.8043
rfemur -81.9342 -17.6076 0.111713
rtibia 52.0692
rfoot -22.8668 -12.603
rtoes 0.748878
lfemur -81.7202 6.03998 -45.1596
ltibia 34.23
lfoot 2.93344 -21.8016
ltoes 28.4581
1422
root 5.14183 15.6929 -3.78938 43.9529 -49.3792 16.9398
lowerback 53.7599 -0.839223 7.337
upperback 18.0027 1.48284 4.42276
thorax -0.653094 0.431886 0.920295
lowerneck -12.8433 -1.63079 4.02785
upperneck -6.17461 -2.88888 0.31194
head 0.138993 -1.62333 -0.681222
rclavicle -6.04305e-014 1.59028e-014
rhumerus 82.2174 -17.9462 -27.5149
rradius 21.3859
rwrist 9.86997
rhand -30.3451 -21.1044
rfingers 7.12502
rthumb -3.65068 -51.0529
lclavicle -6.04305e-014 1.59028e-014
lhumerus 93.0666 2.23237 40.9895
lradius 26.8601
lwrist 56.7853
lhand -16.4714 7.09031
lfingers 7.12502
lthumb 9.74538 36.8448
rfemur -81.9287 -17.6291 0.0209649
rtibia 52.1177
rfoot -22.8669 -12.6255
rtoes 0.77381
lfemur -81.7127 6.05958 -45.3167
ltibia 34.2162
lfoot 3.11922 -21.8788
ltoes 28.6148
1423
root 5.14995 15.6912 -3.79598 43.8459 -49.3664 17.0229
lowerback 53.7736 -0.857242 7.3643
upperback 17.9977 1.47866 4.4232
thorax -0.65781 0.431989 0.910703
lowerneck -12.8848 -1.63821 3.96494
upperneck -6.16731 -2.89179 0.363464
head 0.149281 -1.62282 -0.655348
rclavicle -3.97569e-014 1.59028e-015
rhumerus 82.1514 -18.0067 -27.427
rradius 21.3944
rwrist 9.81074
rhand -30.3625 -21.1291
rfingers 7.12502
rthumb -3.66749 -51.0773
lclavicle -3.97569e-014 1.59028e-015
lhumerus 93.1001 2.21686 40.963
lradius 26.9038
lwrist 56.9216
lhand -16.5163 7.12847
lfingers 7.12502
lthumb 9.70204 36.885
rfemur -81.9175 -17.6468 -0.0725978
rtibia 52.1637
rfoot -22.8665 -12.652
rtoes 0.790803
lfemur -81.7016 6.07462 -45.46
ltibia 34.2032
lfoot 3.30476 -21.9427
ltoes 28.773
1424
root 5.15852 15.6897 -3.80268 43.7455 -49.3454 17.0986
lowerback 53.7829 -0.882236 7.40742
upperback 17.9945 1.47313 4.42191
thorax -0.658727 0.432592 0.892683
lowerneck -12.9422 -1.65002 3.88857
upperneck -6.16284 -2.89969 0.422426
head 0.161432 -1.62465 -0.625316
rclavicle -9.22361e-014 -7.79236e-014
rhumerus 82.0729 -18.0753 -27.3098
rradius 21.4064
rwrist 9.73257
rhand -30.3835 -21.1615
rfingers 7.12502
rthumb -3.68777 -51.1094
lclavicle -9.22361e-014 -7.79236e-014
lhumerus 93.126 2.21433 40.8884
lradius 26.9622
lwrist 57.0952
lhand -16.573 7.17692
lfingers 7.12502
lthumb 9.64737 36.936
rfemur -81.904 -17.6645 -0.160586
rtibia 52.2069
rfoot -22.8669 -12.6783
rtoes 0.822678
lfemur -81.6909 6.07838 -45.5804
ltibia 34.1895
lfoot 3.48743 -21.99
ltoes 28.9233
1425
root 5.16753 15.6887 -3.80936 43.6402 -49.3186 17.1755
lowerback 53.7937 -0.925131 7.4716
upperback 17.9931 1.45643 4.40726
thorax -0.655661 0.430699 0.855234
lowerneck -13.0206 -1.66224 3.80939
upperneck -6.15822 -2.90874 0.4903
head 0.177166 -1.62699 -0.59244
rclavicle 1.74931e-014 -3.18055e-015
rhumerus 81.9994 -18.149 -27.208
rradius 21.4156
rwrist 9.65995
rhand -30.4069 -21.1991
rfingers 7.12502
rthumb -3.71044 -51.1465
lclavicle 1.74931e-014 -3.18055e-015
lhumerus 93.1402 2.22984 40.7475
lradius 27.0395
lwrist 57.2979
lhand -16.6462 7.23758
lfingers 7.12502
lthumb 9.57675 36.9999
rfemur -81.8825 -17.6863 -0.246669
rtibia 52.2469
rfoot -22.8665 -12.7034
rtoes 0.859937
lfemur -81.6703 6.06758 -45.6776
ltibia 34.1718
lfoot 3.66218 -22.0148
ltoes 29.0668
1426
root 5.17693 15.6884 -3.81603 43.5237 -49.2867 17.2601
lowerback 53.8068 -0.992346 7.55896
upperback 17.9929 1.42234 4.37222
thorax -0.648754 0.424378 0.792203
lowerneck -13.1181 -1.67086 3.73072
upperneck -6.15218 -2.91348 0.580861
head 0.196817 -1.62683 -0.552754
rclavicle 1.63799e-013 6.20208e-014
rhumerus 81.9476 -18.2226 -27.1676
rradius 21.416
rwrist 9.62243
rhand -30.4474 -21.2506
rfingers 7.12502
rthumb -3.74949 -51.1974
lclavicle 1.63799e-013 6.20208e-014
lhumerus 93.1363 2.26757 40.526
lradius 27.1417
lwrist 57.5272
lhand -16.7423 7.31167
lfingers 7.12502
lthumb 9.48395 37.0783
rfemur -81.8524 -17.7163 -0.333847
rtibia 52.2845
rfoot -22.8602 -12.7287
rtoes 0.898784
lfemur -81.6364 6.04387 -45.7639
ltibia 34.1464
lfoot 3.8288 -22.0235
ltoes 29.1811
1427
root 5.18673 15.6886 -3.82261 43.3812 -49.2496 17.3678
lowerback 53.8256 -1.08834 7.67133
upperback 17.992 1.36764 4.31498
thorax -0.64056 0.412521 0.702128
lowerneck -13.2591 -1.66797 3.6396
upperneck -6.102 -2.90145 0.749844
head 0.238957 -1.61552 -0.487151
rclavicle 6.52014e-014 -4.77083e-014
rhumerus 81.9129 -18.2964 -27.1907
rradius 21.4086
rwrist 9.61927
rhand -30.5069 -21.3155
rfingers 7.12502
rthumb -3.80699 -51.2613
lclavicle 6.52014e-014 -4.77083e-014
lhumerus 93.1152 2.32265 40.2277
lradius 27.2732
lwrist 57.7859
lhand -16.8618 7.40379
lfingers 7.12502
lthumb 9.36868 37.1756
rfemur -81.8076 -17.7607 -0.43321
rtibia 52.3207
rfoot -22.8507 -12.7517
rtoes 0.945538
lfemur -81.5798 6.00193 -45.8474
ltibia 34.1098
lfoot 3.98968 -22.0166
ltoes 29.2646
